<svg xmlns="http://www.w3.org/2000/svg" viewBox="0 0 1536 1536" preserveAspectRatio="xMidYMid slice">
  <defs>
    <radialGradient id="base" cx="52%" cy="48%" r="70%">
      <stop offset="0%" stop-color="#8c091e"/>
      <stop offset="45%" stop-color="#5f0515"/>
      <stop offset="100%" stop-color="#2a0109"/>
    </radialGradient>
    <filter id="noise" x="-20%" y="-20%" width="140%" height="140%">
      <feTurbulence type="fractalNoise" baseFrequency="0.9" numOctaves="2" seed="8"/>
      <feColorMatrix type="saturate" values="0"/>
      <feComponentTransfer>
        <feFuncA type="table" tableValues="0 0.07"/>
      </feComponentTransfer>
    </filter>
    <linearGradient id="shine1" x1="0" y1="0" x2="1" y2="1">
      <stop offset="0" stop-color="#ff6b8e" stop-opacity="0.65"/>
      <stop offset="0.5" stop-color="#ffb3c7" stop-opacity="0.08"/>
      <stop offset="1" stop-color="#ff6b8e" stop-opacity="0.55"/>
    </linearGradient>
    <linearGradient id="shine2" x1="1" y1="0" x2="0" y2="1">
      <stop offset="0" stop-color="#ff7a9b" stop-opacity="0.6"/>
      <stop offset="0.45" stop-color="#ffc1d3" stop-opacity="0.08"/>
      <stop offset="1" stop-color="#ff6e92" stop-opacity="0.5"/>
    </linearGradient>
  </defs>

  <rect width="1536" height="1536" fill="url(#base)"/>

  <g opacity="0.9">
    <path d="M-120,520 C220,250 420,300 690,590 C870,780 1140,830 1660,530 L1660,760 C1230,1010 910,1000 650,760 C410,540 190,500 -120,760 Z" fill="url(#shine1)"/>
    <path d="M-120,840 C220,560 470,620 700,900 C920,1160 1180,1220 1660,940 L1660,1160 C1240,1360 900,1350 640,1110 C420,910 170,860 -120,1110 Z" fill="url(#shine2)"/>
    <path d="M-80,300 C230,110 500,140 750,380 C980,600 1240,650 1620,420" fill="none" stroke="#ff8fab" stroke-opacity="0.48" stroke-width="54" stroke-linecap="round"/>
    <path d="M-90,1040 C260,760 520,810 780,1070 C1010,1300 1250,1330 1620,1130" fill="none" stroke="#ff8cab" stroke-opacity="0.42" stroke-width="58" stroke-linecap="round"/>
    <path d="M210,1460 C250,1160 360,940 610,780 C890,600 980,350 820,80" fill="none" stroke="#ff769a" stroke-opacity="0.36" stroke-width="76" stroke-linecap="round"/>
    <path d="M1240,1510 C1190,1210 1070,980 840,820 C560,630 510,360 680,20" fill="none" stroke="#ff7da0" stroke-opacity="0.30" stroke-width="68" stroke-linecap="round"/>
  </g>

  <rect width="1536" height="1536" filter="url(#noise)"/>
</svg>
